<svg width="31" height="37" viewBox="0 0 31 37" fill="none" xmlns="http://www.w3.org/2000/svg">
<path d="M21.7625 30.8143L16.7546 5.04761" stroke="#55D0EA" stroke-width="0.5"/>
<path d="M11.0622 35.2486C14.4102 33.3156 15.5574 29.0345 13.6244 25.6864C11.6914 22.3384 7.41026 21.1913 4.06221 23.1243C0.714157 25.0573 -0.432972 29.3384 1.50003 32.6864C3.43303 36.0345 7.71416 37.1816 11.0622 35.2486Z" fill="#1CB9DC"/>
<path d="M18.4497 9.04432C20.602 7.80171 21.3395 5.04955 20.0968 2.89723C18.8542 0.744921 16.102 0.00748074 13.9497 1.25012C11.7974 2.49276 11.06 5.24492 12.3026 7.39723C13.5453 9.54952 16.2974 10.287 18.4497 9.04432Z" fill="#1CB9DC"/>
<path d="M29.0477 21.4006C30.7217 20.4341 31.2953 18.2935 30.3288 16.6195C29.3623 14.9454 27.2217 14.3719 25.5477 15.3384C23.8737 16.3049 23.3001 18.4454 24.2666 20.1195C25.2331 21.7935 27.3737 22.3671 29.0477 21.4006Z" fill="#1CB9DC"/>
<path d="M22.8068 32.5535C23.7825 31.9901 24.1169 30.7425 23.5535 29.7667C22.9902 28.791 21.7425 28.4567 20.7667 29.02C19.791 29.5834 19.4567 30.831 20.02 31.8068C20.5834 32.7825 21.8311 33.1168 22.8068 32.5535Z" fill="#55D0EA"/>
<path d="M7.32666 29.1025L16.1471 4.38013" stroke="#1CB9DC" stroke-width="0.5"/>
<path d="M27.2859 17.8431L16.5085 4.43555" stroke="#1CB9DC" stroke-width="0.5"/>
<path d="M27.6059 17.9031L7.68726 29.4031" stroke="#1CB9DC" stroke-width="0.5"/>
</svg>