<svg width="149" height="37" viewBox="0 0 149 37" fill="none" xmlns="http://www.w3.org/2000/svg">
<path d="M70.008 27.168C68.904 27.168 67.928 26.976 67.08 26.592C66.248 26.208 65.592 25.672 65.112 24.984C64.632 24.296 64.376 23.528 64.344 22.68H66.12C66.2 23.496 66.56 24.216 67.2 24.84C67.84 25.448 68.776 25.752 70.008 25.752C71.144 25.752 72.04 25.464 72.696 24.888C73.368 24.296 73.704 23.552 73.704 22.656C73.704 21.936 73.52 21.36 73.152 20.928C72.784 20.48 72.328 20.152 71.784 19.944C71.24 19.72 70.488 19.48 69.528 19.224C68.408 18.92 67.52 18.624 66.864 18.336C66.208 18.048 65.648 17.6 65.184 16.992C64.72 16.384 64.488 15.56 64.488 14.52C64.488 13.656 64.712 12.888 65.16 12.216C65.608 11.528 66.24 10.992 67.056 10.608C67.872 10.224 68.808 10.032 69.864 10.032C71.416 10.032 72.664 10.416 73.608 11.184C74.568 11.936 75.12 12.912 75.264 14.112H73.44C73.328 13.424 72.952 12.816 72.312 12.288C71.672 11.744 70.808 11.472 69.72 11.472C68.712 11.472 67.872 11.744 67.2 12.288C66.528 12.816 66.192 13.544 66.192 14.472C66.192 15.176 66.376 15.744 66.744 16.176C67.112 16.608 67.568 16.936 68.112 17.16C68.672 17.384 69.424 17.624 70.368 17.88C71.456 18.184 72.336 18.488 73.008 18.792C73.68 19.08 74.248 19.528 74.712 20.136C75.176 20.744 75.408 21.56 75.408 22.584C75.408 23.368 75.2 24.112 74.784 24.816C74.368 25.52 73.752 26.088 72.936 26.52C72.12 26.952 71.144 27.168 70.008 27.168ZM89.4544 13.896L81.6784 33.168H79.9264L82.4704 26.928L77.0944 13.896H78.9424L83.4064 25.08L87.7264 13.896H89.4544ZM96.2445 27.192C94.7405 27.192 93.5085 26.848 92.5485 26.16C91.6045 25.456 91.0765 24.504 90.9645 23.304H92.6925C92.7725 24.04 93.1165 24.64 93.7245 25.104C94.3485 25.552 95.1805 25.776 96.2205 25.776C97.1325 25.776 97.8445 25.56 98.357 25.128C98.885 24.696 99.149 24.16 99.149 23.52C99.149 23.072 99.005 22.704 98.717 22.416C98.429 22.128 98.061 21.904 97.6125 21.744C97.1805 21.568 96.5885 21.384 95.8365 21.192C94.8605 20.936 94.0685 20.68 93.4605 20.424C92.8525 20.168 92.3325 19.792 91.9005 19.296C91.4845 18.784 91.2765 18.104 91.2765 17.256C91.2765 16.616 91.4685 16.024 91.8525 15.48C92.2365 14.936 92.7805 14.504 93.4845 14.184C94.1885 13.864 94.9885 13.704 95.8845 13.704C97.2925 13.704 98.429 14.064 99.293 14.784C100.157 15.488 100.621 16.464 100.685 17.712H99.005C98.957 16.944 98.653 16.328 98.093 15.864C97.5485 15.384 96.7965 15.144 95.8365 15.144C94.9885 15.144 94.3005 15.344 93.7725 15.744C93.2445 16.144 92.9805 16.64 92.9805 17.232C92.9805 17.744 93.1325 18.168 93.4365 18.504C93.7565 18.824 94.1485 19.08 94.6125 19.272C95.0765 19.448 95.7005 19.648 96.4845 19.872C97.4285 20.128 98.181 20.376 98.741 20.616C99.301 20.856 99.781 21.208 100.181 21.672C100.581 22.136 100.789 22.752 100.805 23.52C100.805 24.224 100.613 24.856 100.229 25.416C99.845 25.96 99.309 26.392 98.621 26.712C97.9325 27.032 97.1405 27.192 96.2445 27.192ZM106.151 15.312V23.448C106.151 24.248 106.303 24.8 106.607 25.104C106.911 25.408 107.447 25.56 108.215 25.56H109.751V27H107.951C106.767 27 105.887 26.728 105.311 26.184C104.735 25.624 104.447 24.712 104.447 23.448V15.312H102.623V13.896H104.447V10.608H106.151V13.896H109.751V15.312H106.151ZM124.378 19.776C124.378 20.352 124.362 20.792 124.33 21.096H113.458C113.506 22.088 113.746 22.936 114.178 23.64C114.61 24.344 115.178 24.88 115.882 25.248C116.586 25.6 117.354 25.776 118.186 25.776C119.274 25.776 120.186 25.512 120.922 24.984C121.674 24.456 122.17 23.744 122.41 22.848H124.186C123.866 24.128 123.178 25.176 122.122 25.992C121.082 26.792 119.77 27.192 118.186 27.192C116.954 27.192 115.85 26.92 114.874 26.376C113.898 25.816 113.13 25.032 112.57 24.024C112.026 23 111.754 21.808 111.754 20.448C111.754 19.088 112.026 17.896 112.57 16.872C113.114 15.848 113.874 15.064 114.85 14.52C115.826 13.976 116.938 13.704 118.186 13.704C119.434 13.704 120.522 13.976 121.45 14.52C122.394 15.064 123.114 15.8 123.61 16.728C124.122 17.64 124.378 18.656 124.378 19.776ZM122.674 19.728C122.69 18.752 122.49 17.92 122.074 17.232C121.674 16.544 121.122 16.024 120.418 15.672C119.714 15.32 118.946 15.144 118.114 15.144C116.866 15.144 115.802 15.544 114.922 16.344C114.042 17.144 113.554 18.272 113.458 19.728H122.674ZM143.051 13.656C144.587 13.656 145.835 14.144 146.795 15.12C147.771 16.08 148.259 17.48 148.259 19.32V27H146.603V19.512C146.603 18.088 146.259 17 145.571 16.248C144.883 15.496 143.947 15.12 142.763 15.12C141.531 15.12 140.547 15.528 139.811 16.344C139.075 17.16 138.707 18.344 138.707 19.896V27H137.051V19.512C137.051 18.088 136.707 17 136.019 16.248C135.331 15.496 134.387 15.12 133.187 15.12C131.955 15.12 130.971 15.528 130.235 16.344C129.499 17.16 129.131 18.344 129.131 19.896V27H127.451V13.896H129.131V16.152C129.547 15.336 130.139 14.72 130.907 14.304C131.675 13.872 132.531 13.656 133.475 13.656C134.611 13.656 135.603 13.928 136.451 14.472C137.315 15.016 137.939 15.816 138.323 16.872C138.675 15.832 139.275 15.04 140.123 14.496C140.987 13.936 141.963 13.656 143.051 13.656Z" fill="#223853"/>
<path d="M47.976 23.0239H41.688L40.68 25.9999H36.384L42.48 9.15188H47.232L53.328 25.9999H48.984L47.976 23.0239ZM46.92 19.8559L44.832 13.6879L42.768 19.8559H46.92ZM57.2473 11.2159C56.5273 11.2159 55.9353 11.0079 55.4713 10.5919C55.0233 10.1599 54.7993 9.63188 54.7993 9.00788C54.7993 8.36788 55.0233 7.83988 55.4713 7.42388C55.9353 6.99188 56.5273 6.77588 57.2473 6.77588C57.9513 6.77588 58.5273 6.99188 58.9753 7.42388C59.4393 7.83988 59.6713 8.36788 59.6713 9.00788C59.6713 9.63188 59.4393 10.1599 58.9753 10.5919C58.5273 11.0079 57.9513 11.2159 57.2473 11.2159ZM59.2873 12.6079V25.9999H55.1833V12.6079H59.2873Z" fill="#223853"/>
<path d="M21.7625 30.8143L16.7546 5.04761" stroke="#55D0EA" stroke-width="0.5"/>
<path d="M11.0622 35.2486C14.4102 33.3156 15.5574 29.0345 13.6244 25.6864C11.6914 22.3384 7.41026 21.1913 4.06221 23.1243C0.714157 25.0573 -0.432972 29.3384 1.50003 32.6864C3.43303 36.0345 7.71416 37.1816 11.0622 35.2486Z" fill="#1CB9DC"/>
<path d="M18.4497 9.04432C20.602 7.80171 21.3395 5.04955 20.0968 2.89723C18.8542 0.744921 16.102 0.00748074 13.9497 1.25012C11.7974 2.49276 11.06 5.24492 12.3026 7.39723C13.5453 9.54952 16.2974 10.287 18.4497 9.04432Z" fill="#1CB9DC"/>
<path d="M29.0477 21.4006C30.7217 20.4341 31.2953 18.2935 30.3288 16.6195C29.3623 14.9454 27.2217 14.3719 25.5477 15.3384C23.8737 16.3049 23.3001 18.4454 24.2666 20.1195C25.2331 21.7935 27.3737 22.3671 29.0477 21.4006Z" fill="#1CB9DC"/>
<path d="M22.8068 32.5535C23.7825 31.9901 24.1169 30.7425 23.5535 29.7667C22.9902 28.791 21.7425 28.4567 20.7667 29.02C19.791 29.5834 19.4567 30.831 20.02 31.8068C20.5834 32.7825 21.8311 33.1168 22.8068 32.5535Z" fill="#55D0EA"/>
<path d="M7.32666 29.1025L16.1471 4.38013" stroke="#1CB9DC" stroke-width="0.5"/>
<path d="M27.2859 17.8431L16.5085 4.43555" stroke="#1CB9DC" stroke-width="0.5"/>
<path d="M27.6059 17.9031L7.68726 29.4031" stroke="#1CB9DC" stroke-width="0.5"/>
</svg>
