<svg width="77" height="77" viewBox="0 0 77 77" fill="none" xmlns="http://www.w3.org/2000/svg">
<g clip-path="url(#clip0)">
<path d="M77 4.48224V22.8297C77 25.3052 74.9931 27.312 72.5177 27.312H57.6924L52.9942 31.4577V27.312H49.1419C46.6665 27.312 44.6597 25.3052 44.6597 22.8297V4.48224C44.6597 2.00681 46.6663 0 49.1419 0H72.5179C74.9931 0 77 2.00681 77 4.48224Z" fill="#A7D2DB"/>
<path d="M72.5179 0H66.3208C68.7962 0 70.803 2.00681 70.803 4.48224V22.8297C70.803 25.3052 68.7962 27.312 66.3208 27.312H72.5179C74.9934 27.312 77.0002 25.3052 77.0002 22.8297V4.48224C77.0002 2.00681 74.9934 0 72.5179 0V0Z" fill="#86B7C3"/>
<path d="M35.1313 5.86429C35.5858 5.41116 35.587 4.6756 35.1339 4.22097C34.6806 3.76649 33.9452 3.76544 33.4906 4.21841L30.1761 7.5228C29.7216 7.97592 29.7204 8.71148 30.1735 9.16612C30.4006 9.39381 30.6986 9.5078 30.9965 9.5078C31.2932 9.5078 31.5901 9.39471 31.8169 9.16867L35.1313 5.86429Z" fill="#E1E7EA"/>
<path d="M27.8047 0.931397C27.1647 0.874549 26.6012 1.34678 26.5442 1.98579L26.1292 6.64774C26.0723 7.28705 26.5444 7.85132 27.1835 7.90817C27.2186 7.91118 27.2533 7.91268 27.2879 7.91268C27.883 7.91268 28.3901 7.4579 28.444 6.85378L28.859 2.19182C28.916 1.55266 28.444 0.988244 27.8047 0.931397Z" fill="#E1E7EA"/>
<path d="M37.377 10.3937L32.7138 10.7945C32.0744 10.8494 31.6008 11.4124 31.6557 12.0518C31.7077 12.6572 32.2153 13.1141 32.812 13.1141C32.8454 13.1141 32.8791 13.1128 32.913 13.1099L37.5761 12.7091C38.2156 12.6542 38.6892 12.0912 38.6343 11.4519C38.5794 10.8124 38.0157 10.3408 37.377 10.3937Z" fill="#E1E7EA"/>
<path d="M72.171 42.9035C72.6255 42.4504 72.6267 41.7149 72.1736 41.2602C71.7203 40.8059 70.9849 40.8047 70.5303 41.2577L67.2157 44.5622C66.7612 45.0153 66.76 45.7509 67.2131 46.2055C67.4402 46.4332 67.7381 46.5472 68.036 46.5472C68.3328 46.5472 68.6296 46.4341 68.8564 46.2081L72.171 42.9035Z" fill="#E1E7EA"/>
<path d="M64.8444 37.9706C64.2037 37.9159 63.6408 38.3859 63.5839 39.025L63.1687 43.687C63.1119 44.3263 63.5839 44.8904 64.2231 44.9474C64.2581 44.9504 64.293 44.9519 64.3275 44.9519C64.9226 44.9519 65.4297 44.4971 65.4835 43.893L65.8987 39.2311C65.9556 38.5919 65.4837 38.0276 64.8444 37.9706Z" fill="#E1E7EA"/>
<path d="M75.6738 48.4915C75.6189 47.8521 75.0541 47.3792 74.4167 47.4332L69.7535 47.8338C69.1142 47.8887 68.6404 48.4516 68.6952 49.0909C68.7473 49.6965 69.2548 50.1534 69.8516 50.1534C69.8848 50.1534 69.9187 50.1521 69.9524 50.1492L74.6155 49.7486C75.2548 49.6937 75.7287 49.1308 75.6738 48.4915Z" fill="#E1E7EA"/>
<path d="M11.7725 10.1582L23.6885 16.0443L29.5461 27.868L27.1839 30.2217C24.7587 32.6381 24.7587 36.5558 27.1839 38.9723L38.0278 49.7773C40.453 52.1937 44.3848 52.1937 46.81 49.7773L49.1722 47.4236L60.8297 53.4169L66.9458 65.1335C59.5669 72.4859 47.6032 72.4859 40.2243 65.1335L11.7725 36.7838C4.39355 29.4314 4.39355 17.5106 11.7725 10.1582Z" fill="#1CB9DC"/>
<path d="M29.5461 27.8681L11.7725 10.1582L14.0279 7.91096C16.1139 5.83241 19.4943 5.83241 21.5803 7.91096L31.7955 18.0894C33.8838 20.1702 33.8838 23.5457 31.7955 25.6267L29.5461 27.8681Z" fill="#C9E8ED"/>
<path d="M66.946 65.1335L49.1724 47.4236L51.4278 45.1763C53.5138 43.0978 56.8942 43.0978 58.9802 45.1763L69.1954 55.3548C71.2837 57.4356 71.2837 60.8111 69.1954 62.8921L66.946 65.1335Z" fill="#C9E8ED"/>
<path d="M66.946 65.1335L49.1724 47.4236L51.4278 45.1763C53.5138 43.0978 56.8942 43.0978 58.9802 45.1763L69.1954 55.3548C71.2837 57.4356 71.2837 60.8111 69.1954 62.8921L66.946 65.1335Z" fill="#C9E8ED"/>
<path d="M0 72.5177V54.1701C0 51.6947 2.00681 49.6879 4.48224 49.6879H19.3076L24.0058 45.5422V49.6879H27.8581C30.3335 49.6879 32.3403 51.6947 32.3403 54.1701V72.5177C32.3403 74.9931 30.3335 76.9999 27.8581 76.9999H4.48224C2.00681 76.9999 0 74.9931 0 72.5177H0Z" fill="#C8E4EB"/>
<path d="M27.8581 49.6882H24.0058V45.5425L19.3076 49.6882H21.6609C24.1364 49.6882 26.1432 51.695 26.1432 54.1704V72.5179C26.1432 74.9933 24.1364 77.0001 21.6609 77.0001H27.8581C30.3335 77.0001 32.3403 74.9933 32.3403 72.5179V54.1702C32.3403 51.6948 30.3337 49.6882 27.8581 49.6882Z" fill="#A6D1DB"/>
<path d="M69.4375 8.94092H52.222C51.5801 8.94092 51.0601 9.46112 51.0601 10.1028C51.0601 10.7447 51.5803 11.2648 52.222 11.2648H69.4375C70.0794 11.2648 70.5994 10.7446 70.5994 10.1028C70.5996 9.46097 70.0794 8.94092 69.4375 8.94092Z" fill="white"/>
<path d="M63.2403 16.0706H52.222C51.5801 16.0706 51.0601 16.5908 51.0601 17.2325C51.0601 17.8743 51.5803 18.3944 52.222 18.3944H63.2403C63.8822 18.3944 64.4023 17.8742 64.4023 17.2325C64.4023 16.5908 63.8822 16.0706 63.2403 16.0706Z" fill="white"/>
<path d="M24.7778 58.9302H7.56231C6.92044 58.9302 6.40039 59.4504 6.40039 60.0921C6.40039 60.7339 6.92059 61.254 7.56231 61.254H24.7778C25.4197 61.254 25.9397 60.7338 25.9397 60.0921C25.9397 59.4504 25.4195 58.9302 24.7778 58.9302Z" fill="#1CB9DC"/>
<path d="M18.5805 66.0598H7.56231C6.92044 66.0598 6.40039 66.58 6.40039 67.2217C6.40039 67.8636 6.92059 68.3837 7.56231 68.3837H18.5807C19.2225 68.3837 19.7426 67.8634 19.7426 67.2217C19.7426 66.5799 19.2224 66.0598 18.5805 66.0598Z" fill="#1CB9DC"/>
</g>
<defs>
<clipPath id="clip0">
<rect width="77" height="77" fill="white"/>
</clipPath>
</defs>
</svg>
