<svg width="75" height="75" viewBox="0 0 75 75" fill="none" xmlns="http://www.w3.org/2000/svg">
<path d="M14.1589 75H60.8873C62.5994 75 63.9873 73.6121 63.9873 71.9V10.3231C63.9873 8.61096 62.5994 7.22302 60.8873 7.22302H14.1589C12.4468 7.22302 11.0588 8.61096 11.0588 10.3231V71.9C11.0588 73.6121 12.4468 75 14.1589 75Z" fill="#1CB9DC"/>
<path d="M58.1191 7.22302H16.927V69.0403H58.1191V7.22302Z" fill="#C8E4EB"/>
<path d="M22.9634 7.22302H16.9272V69.0403H22.9634V7.22302Z" fill="#A6D1DB"/>
<path d="M48.1177 4.99291V8.10629C48.1177 9.77416 46.7656 11.1262 45.0978 11.1262H29.9481C28.2802 11.1262 26.9281 9.77416 26.9281 8.10629C26.9281 7.06361 26.9281 6.02108 26.9281 4.97841C26.9281 3.8871 27.5173 2.88119 28.4677 2.34491C34.0531 -0.806115 40.973 -0.759387 46.5646 2.35194C47.5231 2.88514 48.1177 3.89603 48.1177 4.99291Z" fill="#A6D1DB"/>
<path d="M33.6607 4.88391H41.3854C42.0104 4.88391 42.5171 5.3906 42.5171 6.01565C42.5171 6.6407 42.0104 7.14739 41.3854 7.14739H33.6607C33.0356 7.14739 32.5289 6.6407 32.5289 6.01565C32.5289 5.3906 33.0356 4.88391 33.6607 4.88391Z" fill="white"/>
<path d="M25.764 26.4357C24.3142 26.4357 23.1389 25.2624 23.1389 23.8151C23.1389 22.3677 24.3142 21.1945 25.764 21.1945C27.2138 21.1945 28.3892 22.3677 28.3892 23.8151C28.3892 25.2624 27.2138 26.4357 25.764 26.4357Z" fill="#3A577B"/>
<path d="M25.764 37.6328C24.3142 37.6328 23.1389 36.4595 23.1389 35.0122C23.1389 33.5649 24.3142 32.3916 25.764 32.3916C27.2138 32.3916 28.3892 33.5649 28.3892 35.0122C28.3892 36.4595 27.2138 37.6328 25.764 37.6328Z" fill="#1CB9DC"/>
<path d="M25.764 48.83C24.3142 48.83 23.1389 47.6567 23.1389 46.2094C23.1389 44.762 24.3142 43.5887 25.764 43.5887C27.2138 43.5887 28.3892 44.762 28.3892 46.2094C28.3892 47.6567 27.2138 48.83 25.764 48.83Z" fill="#3A577B"/>
<path d="M51.9078 24.9469H34.1962C33.5712 24.9469 33.0645 24.4403 33.0645 23.8152C33.0645 23.1902 33.5712 22.6835 34.1962 22.6835H51.9078C52.5329 22.6835 53.0396 23.1902 53.0396 23.8152C53.0396 24.4403 52.5329 24.9469 51.9078 24.9469Z" fill="#86B7C2"/>
<path d="M34.1961 33.8805H51.9078C52.5329 33.8805 53.0396 34.3872 53.0396 35.0122C53.0396 35.6373 52.5329 36.144 51.9078 36.144H34.1962C33.5712 36.144 33.0645 35.6373 33.0645 35.0122C33.0645 34.3872 33.5711 33.8805 34.1961 33.8805Z" fill="#86B7C2"/>
<path d="M34.1961 45.0776H51.9078C52.5329 45.0776 53.0396 45.5843 53.0396 46.2094C53.0396 46.8346 52.5329 47.3411 51.9078 47.3411H34.1962C33.5712 47.3411 33.0645 46.8344 33.0645 46.2094C33.0644 45.5843 33.5711 45.0776 34.1961 45.0776Z" fill="#86B7C2"/>
<path d="M34.1961 56.2747H51.9078C52.5329 56.2747 53.0396 56.7814 53.0396 57.4064C53.0396 58.0316 52.5329 58.5381 51.9078 58.5381H34.1962C33.5712 58.5381 33.0645 58.0315 33.0645 57.4064C33.0644 56.7814 33.5711 56.2747 34.1961 56.2747Z" fill="#86B7C2"/>
<path d="M25.764 60.027C24.3142 60.027 23.1389 58.8537 23.1389 57.4064C23.1389 55.9591 24.3142 54.7858 25.764 54.7858C27.2138 54.7858 28.3892 55.9591 28.3892 57.4064C28.3892 58.8537 27.2138 60.027 25.764 60.027Z" fill="#3A577B"/>
<path d="M6.33081 64.0791H0.000190735L3.16543 71.9477L6.33081 64.0791Z" fill="#1CB9DC"/>
<path d="M6.33081 22.3013H0.000190735V64.0794H6.33081V22.3013Z" fill="#A6D1DB"/>
<path d="M0.000182629 24.0289H6.33081V18.0847C6.33081 16.3365 4.91372 14.9194 3.16557 14.9194C1.41742 14.9194 0.000330448 16.3365 0.000330448 18.0847V24.0289H0.000182629Z" fill="#1CB9DC"/>
<path d="M61.5264 65.0403C54.0851 65.0403 48.0527 58.995 48.0527 51.5378C48.0527 44.0805 54.0851 38.0353 61.5264 38.0353C68.9676 38.0353 75 44.0805 75 51.5378C75 58.995 68.9676 65.0403 61.5264 65.0403Z" fill="#3A587B"/>
<path d="M61.5263 38.0354C62.5638 38.0354 63.5741 38.153 64.5444 38.3755C58.5562 39.7488 54.0888 45.1206 54.0888 51.5379C54.0888 57.9552 58.5562 63.327 64.5444 64.7002C63.5741 64.9228 62.564 65.0404 61.5263 65.0404C54.085 65.0404 48.0526 58.9951 48.0526 51.5379C48.0526 44.0807 54.085 38.0354 61.5263 38.0354Z" fill="#223853"/>
<path d="M63.8973 50.8027C64.5223 50.8027 65.029 50.2961 65.029 49.671C65.029 49.0583 65.5254 48.5596 66.1357 48.5596C66.7459 48.5596 67.2424 49.0581 67.2424 49.671C67.2424 50.2962 67.7491 50.8027 68.3741 50.8027C68.9992 50.8027 69.5059 50.2961 69.5059 49.671C69.5059 47.8101 67.994 46.2961 66.1355 46.2961C64.2771 46.2961 62.7652 47.8101 62.7652 49.671C62.7655 50.2961 63.2722 50.8027 63.8973 50.8027Z" fill="white"/>
<path d="M54.8686 50.8027C55.4937 50.8027 56.0003 50.2961 56.0003 49.671C56.0003 49.0583 56.4968 48.5596 57.1069 48.5596C57.7171 48.5596 58.2136 49.0581 58.2136 49.671C58.2136 50.2962 58.7203 50.8027 59.3453 50.8027C59.9704 50.8027 60.4771 50.2961 60.4771 49.671C60.4771 47.8101 58.9652 46.2961 57.1067 46.2961C55.2484 46.2961 53.7366 47.8101 53.7366 49.671C53.7369 50.2961 54.2436 50.8027 54.8686 50.8027Z" fill="white"/>
<path d="M61.5267 59.0636C63.7023 59.0636 65.7485 58.2137 67.2885 56.6705C67.73 56.2281 67.7293 55.5115 67.2867 55.0698C66.8442 54.6283 66.1278 54.6291 65.6861 55.0715C64.5739 56.1861 63.0967 56.8 61.5267 56.8C59.9567 56.8 58.4795 56.1861 57.3673 55.0715C56.9256 54.6289 56.2093 54.6283 55.7666 55.0698C55.3242 55.5113 55.3234 56.2279 55.7649 56.6705C57.3049 58.2137 59.3511 59.0636 61.5267 59.0636Z" fill="white"/>
</svg>
