<svg width="71" height="71" viewBox="0 0 71 71" fill="none" xmlns="http://www.w3.org/2000/svg">
<path d="M68.7812 31.0625V71H2.21875V31.0625L11.0938 26.625L15.5312 34.3906L11.0938 44.375L35.5 57.6875L59.9062 44.375L55.4688 35.5L59.9062 26.625L68.7812 31.0625Z" fill="#C8E4EB"/>
<path d="M59.9062 0V44.375L35.5 59.9062L11.0938 44.375V0H59.9062Z" fill="#1CB9DC"/>
<path d="M59.9062 44.375V48.8125L35.5 62.125L11.0938 48.8125V44.375L35.5 57.6875L59.9062 44.375Z" fill="#86B7C2"/>
<path d="M35.5 17.75C34.2758 17.75 33.2812 16.7554 33.2812 15.5312C33.2812 14.3071 34.2758 13.3125 35.5 13.3125C36.7242 13.3125 37.7188 14.3071 37.7188 15.5312H42.1562C42.1562 12.6424 40.2958 10.2026 37.7188 9.28367V4.4375H33.2812V9.28367C30.7042 10.2026 28.8438 12.6424 28.8438 15.5312C28.8438 19.2018 31.8295 22.1875 35.5 22.1875C36.7242 22.1875 37.7188 23.1821 37.7188 24.4062C37.7188 25.6304 36.7242 26.625 35.5 26.625C34.2758 26.625 33.2812 25.6304 33.2812 24.4062H28.8438C28.8438 27.2951 30.7042 29.7349 33.2812 30.6538V35.5H37.7188V30.6538C40.2958 29.7349 42.1562 27.2951 42.1562 24.4062C42.1562 20.7357 39.1705 17.75 35.5 17.75Z" fill="white"/>
<path d="M19.9688 39.9375H51.0312V44.375H19.9688V39.9375Z" fill="white"/>
</svg>
