<svg width="86" height="73" viewBox="0 0 86 73" fill="none" xmlns="http://www.w3.org/2000/svg">
<path d="M30.7549 52.2748C36.1215 52.2748 40.4721 47.9242 40.4721 42.5576V38.4757H30.7549V52.2748Z" fill="#C9E8ED"/>
<path d="M30.6257 38.1536V69.5351C30.6257 71.9441 28.1857 73.5862 25.9539 72.6793L15.1777 68.3C13.6817 67.6921 12.8212 66.1141 13.1203 64.5273L18.0902 38.1536H30.6257Z" fill="#A6D1DB"/>
<path d="M22.9046 38.1536V69.5351C22.9046 70.172 22.734 70.7553 22.4419 71.252L25.9541 72.6793C28.186 73.5862 30.6259 71.9441 30.6259 69.5351V38.1536H22.9046Z" fill="#86B7C2"/>
<path d="M30.6257 41.1626H14.6578C6.5625 41.1626 0 34.6001 0 26.5047C0 18.4094 6.5625 11.8469 14.6578 11.8469H30.6257V41.1626Z" fill="#1CB9DC"/>
<path d="M30.6255 41.1625C30.6255 41.1625 47.1512 39.9908 61.3429 52.1735C63.4869 54.014 66.8006 52.5003 66.8006 49.6745V3.30496C66.8006 0.478769 63.4862 -1.03473 61.3423 0.806519C47.1506 12.9944 30.6255 11.8467 30.6255 11.8467V41.1625Z" fill="#A6D1DB"/>
<path d="M61.3425 0.806605C60.5747 1.46604 59.8002 2.08629 59.0217 2.66979C59.0597 2.87285 59.0798 3.08492 59.0798 3.30504V49.6745C59.0798 49.8949 59.0595 50.1073 59.0215 50.3107C59.8002 50.894 60.5751 51.5143 61.3431 52.1735C63.4872 54.014 66.8009 52.5004 66.8009 49.6745V3.30504C66.801 0.479042 63.4866 -1.03464 61.3425 0.806605Z" fill="#86B7C2"/>
<path d="M84.1026 24.9702H76.4496C75.65 24.9702 75.002 25.6184 75.002 26.4179C75.002 27.2174 75.65 27.8656 76.4496 27.8656H84.1026C84.9023 27.8656 85.5503 27.2174 85.5503 26.4179C85.5503 25.6184 84.9023 24.9702 84.1026 24.9702Z" fill="#E1E7EA"/>
<path d="M73.995 21.7358C74.3233 21.7358 74.6537 21.6246 74.9248 21.397L80.7874 16.4777C81.3998 15.9638 81.4798 15.0507 80.9657 14.4383C80.4518 13.8257 79.5387 13.746 78.9261 14.2598L73.0635 19.179C72.4511 19.693 72.3711 20.6063 72.8852 21.2187C73.1717 21.5599 73.582 21.7358 73.995 21.7358Z" fill="#E1E7EA"/>
<path d="M81.1827 36.5017L75.3203 31.5825C74.708 31.0683 73.7948 31.1484 73.2807 31.761C72.7666 32.3735 72.8467 33.2865 73.459 33.8004L79.3214 38.7196C79.5927 38.9473 79.9229 39.0585 80.2512 39.0585C80.6645 39.0585 81.0745 38.8826 81.3608 38.5413C81.8752 37.9288 81.7953 37.0156 81.1827 36.5017Z" fill="#E1E7EA"/>
</svg>
