<svg width="80" height="80" viewBox="0 0 80 80" fill="none" xmlns="http://www.w3.org/2000/svg">
<g clip-path="url(#clip0)">
<path d="M16.5649 10.3008C16.2607 10.3008 15.9562 10.1847 15.7238 9.9525C14.8131 9.04172 14.8027 8.07359 14.7959 7.43297C14.7902 6.89937 14.7712 6.77672 14.5645 6.57016C14.3579 6.36359 14.2354 6.34453 13.7017 6.33875C13.0612 6.33187 12.0931 6.32172 11.1821 5.41078C10.2715 4.50016 10.2617 3.53219 10.2549 2.89172C10.2495 2.35859 10.2304 2.23625 10.0243 2.03016C9.55993 1.56578 9.55993 0.812656 10.0243 0.348281C10.4888 -0.116094 11.2418 -0.116094 11.7063 0.348281C12.617 1.25891 12.6268 2.22687 12.6335 2.86734C12.639 3.40047 12.6581 3.52281 12.8642 3.72891C13.0707 3.93547 13.1932 3.95453 13.727 3.96031C14.3674 3.96719 15.3356 3.97734 16.2465 4.88828C17.1573 5.79906 17.1676 6.76719 17.1745 7.40766C17.1801 7.94141 17.1993 8.06391 17.4059 8.27047C17.8702 8.73484 17.8702 9.48797 17.4059 9.95234C17.1737 10.1845 16.8693 10.3008 16.5649 10.3008Z" fill="#1CB9DC"/>
<path d="M20.4782 28.6092C20.174 28.6092 19.8694 28.4931 19.6371 28.2609C19.1727 27.7965 19.1727 27.0434 19.6371 26.579C20.5479 25.6684 21.5158 25.6585 22.1563 25.6518C22.6894 25.6463 22.8119 25.6273 23.018 25.4212C23.2244 25.2146 23.2437 25.0921 23.2493 24.5584C23.2562 23.9178 23.2665 22.9498 24.1774 22.0388C25.0882 21.1281 26.0562 21.1178 26.6968 21.1109C27.2304 21.1053 27.3529 21.086 27.5596 20.8795C28.024 20.4151 28.7771 20.4153 29.2415 20.8795C29.7058 21.344 29.7058 22.097 29.2413 22.5615C28.3305 23.4723 27.3626 23.4824 26.7219 23.4893C26.1883 23.4949 26.0658 23.5142 25.8593 23.7207C25.6526 23.9273 25.6335 24.0499 25.6279 24.5835C25.621 25.2242 25.6107 26.1923 24.6999 27.1031C23.7891 28.0137 22.8212 28.0235 22.1807 28.0303C21.6476 28.0357 21.5251 28.0548 21.3191 28.2609C21.0869 28.4931 20.7824 28.6092 20.4782 28.6092Z" fill="#1CB9DC"/>
<path d="M6.90446 61.5005C6.60024 61.5005 6.29571 61.3844 6.06337 61.1522C5.59899 60.6879 5.59899 59.9347 6.06337 59.4704C6.97415 58.5597 7.94196 58.5499 8.58259 58.5432C9.11556 58.5377 9.23806 58.5186 9.44399 58.3126C9.65056 58.106 9.66978 57.9833 9.6754 57.4497C9.68228 56.8091 9.69259 55.841 10.6035 54.9302C11.5143 54.0194 12.4824 54.0091 13.1231 54.0022C13.6567 53.9966 13.7793 53.9774 13.9859 53.7708C14.4502 53.3065 15.2034 53.3066 15.6677 53.7708C16.1321 54.2354 16.1321 54.9883 15.6676 55.4529C14.7568 56.3636 13.7887 56.3738 13.1482 56.3807C12.6145 56.3863 12.492 56.4055 12.2854 56.6121C12.0787 56.8186 12.0596 56.9413 12.054 57.4749C12.0471 58.1155 12.0368 59.0836 11.126 59.9944C10.2152 60.905 9.24743 60.9149 8.60681 60.9216C8.07384 60.9271 7.95134 60.9461 7.7454 61.1522C7.51321 61.3844 7.20884 61.5005 6.90446 61.5005Z" fill="#1CB9DC"/>
<path d="M37.2159 52.088C36.9278 52.088 36.6386 51.9838 36.41 51.773C35.4684 50.9048 35.4573 49.9391 35.4508 49.362C35.4451 48.8886 35.4289 48.8306 35.2575 48.6725C35.0508 48.4819 34.905 48.4614 34.3709 48.4561C33.7439 48.4498 32.7962 48.4406 31.8953 47.6098C30.954 46.7419 30.9433 45.7764 30.9369 45.1994C30.9314 44.7217 30.917 44.6702 30.7444 44.5109C30.2615 44.0656 30.2311 43.3133 30.6762 42.8303C31.1215 42.3475 31.874 42.317 32.3567 42.762C33.2981 43.63 33.3087 44.5956 33.3153 45.1727C33.3206 45.6456 33.3369 45.7034 33.5076 45.8611C33.7144 46.0517 33.8603 46.0723 34.3944 46.0775C35.0214 46.0836 35.9689 46.093 36.8698 46.9238C37.8114 47.7919 37.8225 48.7577 37.8291 49.3347C37.8347 49.8081 37.8509 49.8661 38.0223 50.0242C38.5051 50.4694 38.5356 51.2219 38.0905 51.7047C37.8561 51.9592 37.5364 52.088 37.2159 52.088Z" fill="#1CB9DC"/>
<path d="M6.99327 37.9476C6.68795 37.9476 6.38264 37.8307 6.1503 37.5973C5.23108 36.6736 5.22077 35.6906 5.21373 35.0401C5.20827 34.5231 5.1967 34.3637 4.96967 34.1357C4.74436 33.9092 4.59873 33.8984 4.0778 33.8928C3.42827 33.8859 2.44686 33.8754 1.52514 32.9493C0.606234 32.0257 0.596234 31.0429 0.589515 30.3926C0.584203 29.8759 0.57264 29.7168 0.346234 29.4895C-0.117047 29.0239 -0.115172 28.2709 0.350453 27.8076C0.815922 27.344 1.56905 27.346 2.03233 27.8117C2.95139 28.7353 2.96139 29.7181 2.96795 30.3684C2.97342 30.885 2.98483 31.0442 3.21123 31.2715C3.43655 31.4979 3.58217 31.5087 4.10327 31.5143C4.7528 31.5212 5.7342 31.5317 6.65577 32.4579C7.57498 33.3817 7.5853 34.3645 7.59233 35.015C7.5978 35.532 7.60936 35.6914 7.83639 35.9193C8.29967 36.385 8.2978 37.1379 7.83217 37.6014C7.60014 37.8323 7.2967 37.9476 6.99327 37.9476Z" fill="#1CB9DC"/>
<path d="M48.9906 40.5338C48.6864 40.5338 48.3819 40.4177 48.1496 40.1855C47.6852 39.7211 47.6852 38.968 48.1496 38.5036C49.0605 37.5927 50.0286 37.5825 50.6691 37.5757C51.2028 37.57 51.3253 37.5508 51.5319 37.3443C51.7386 37.1377 51.7577 37.015 51.7633 36.4814C51.7702 35.8408 51.7805 34.8727 52.6913 33.9619C53.602 33.0513 54.5699 33.0414 55.2105 33.0347C55.7435 33.0292 55.866 33.0102 56.0719 32.8041C56.5364 32.3397 57.2894 32.3397 57.7539 32.8041C58.2183 33.2685 58.2183 34.0216 57.7539 34.486C56.8431 35.3966 55.8753 35.4064 55.2347 35.4132C54.7017 35.4186 54.5792 35.4377 54.3733 35.6438C54.1667 35.8503 54.1475 35.973 54.1419 36.5066C54.135 37.1472 54.1247 38.1153 53.2139 39.0261C52.303 39.9371 51.3349 39.9472 50.6944 39.9541C50.1606 39.9597 50.0381 39.9789 49.8316 40.1855C49.5994 40.4177 49.295 40.5338 48.9906 40.5338Z" fill="#1CB9DC"/>
<path d="M1.18945 69.6714H27.406V80H1.18945V69.6714Z" fill="#1CB9DC"/>
<path d="M21.063 69.6714H27.406V80H21.063V69.6714Z" fill="#4CCDEA"/>
<path d="M53.7837 46.436H80.0002V80.0001H53.7837V46.436Z" fill="#A6D1DB"/>
<path d="M73.6572 46.436H80.0002V80.0001H73.6572V46.436Z" fill="#86B7C2"/>
<path d="M27.501 59.2061H53.7175V80H27.501V59.2061Z" fill="#C9E8ED"/>
<path d="M47.375 59.2061H53.718V80H47.375V59.2061Z" fill="#9FDFEA"/>
<path d="M64.0088 46.4359H69.853V24.8323L64.0088 21.4119V46.4359Z" fill="#3A577B"/>
<path d="M69.853 24.8325H36.0508V1.18939H69.853V24.8325Z" fill="#C8E4EB"/>
<path d="M63.5098 1.18921H69.8527V24.8323H63.5098V1.18921Z" fill="#A6D1DB"/>
<path d="M52.9519 6.73706L50.9016 10.8674L46.3169 11.5297L49.6344 14.7447L48.8513 19.2846L52.9519 17.1411L57.0525 19.2846L56.2694 14.7447L59.5869 11.5297L55.0022 10.8674L52.9519 6.73706Z" fill="#86B7C2"/>
<path d="M1.14891 51.2128C2.67938 51.2128 2.68188 48.8342 1.14891 48.8342C-0.381719 48.8342 -0.384219 51.2128 1.14891 51.2128Z" fill="#A6F5CF"/>
<path d="M27.4593 7.67498C28.9898 7.67498 28.9925 5.29639 27.4593 5.29639C25.9289 5.29639 25.9264 7.67498 27.4593 7.67498Z" fill="#A6F5CF"/>
<path d="M1.14891 12.1757C2.67938 12.1757 2.68188 9.79712 1.14891 9.79712C-0.381719 9.79712 -0.384219 12.1757 1.14891 12.1757Z" fill="#A6F5CF"/>
<path d="M12.556 21.4118C14.0865 21.4118 14.0891 19.0332 12.556 19.0332C11.0255 19.0332 11.023 21.4118 12.556 21.4118Z" fill="#A6F5CF"/>
<path d="M19.0802 43.3278C20.6107 43.3278 20.6132 40.9492 19.0802 40.9492C17.5497 40.9492 17.5472 43.3278 19.0802 43.3278Z" fill="#A6F5CF"/>
<path d="M20.4782 65.4111C22.0087 65.4111 22.0112 63.0325 20.4782 63.0325C18.9477 63.0325 18.9451 65.4111 20.4782 65.4111Z" fill="#A6F5CF"/>
<path d="M39.4848 35.8139C41.0153 35.8139 41.0179 33.4353 39.4848 33.4353C37.9543 33.4353 37.9517 35.8139 39.4848 35.8139Z" fill="#A6F5CF"/>
<path d="M45.5107 51.2128C47.0411 51.2128 47.0438 48.8342 45.5107 48.8342C43.9802 48.8342 43.9775 51.2128 45.5107 51.2128Z" fill="#A6F5CF"/>
</g>
<defs>
<clipPath id="clip0">
<rect width="80" height="80" fill="white"/>
</clipPath>
</defs>
</svg>
