<svg width="81" height="81" viewBox="0 0 81 81" fill="none" xmlns="http://www.w3.org/2000/svg">
<path d="M69.04 26.0697H52.3149V56.3832H79.7177V42.7391L76.5218 31.6937C75.5584 28.3628 72.5076 26.0697 69.04 26.0697Z" fill="#A6D1DB"/>
<path d="M75.7169 42.5991L72.8687 32.7533C72.3776 31.0609 70.8033 29.8763 69.04 29.8763H56.1216V42.5991H75.7169Z" fill="#84DBFF"/>
<path d="M75.7202 42.594H56.1147V29.8713L75.7202 42.594Z" fill="#CDD6E0"/>
<path d="M75.7169 42.5991L72.8687 32.7533C72.3776 31.0609 70.8033 29.8763 69.04 29.8763H56.1216L75.7169 42.5991Z" fill="#F2F2F2"/>
<path d="M5.06207 10.8513H47.2527C50.047 10.8513 52.3148 13.1174 52.3148 15.9134V56.3814H0V15.9134C0 13.1175 2.26607 10.8513 5.06207 10.8513Z" fill="#C8E4EB"/>
<path d="M34.2871 10.8599V24.2355L32.3296 22.2782L30.2779 24.3301L28.2278 22.2782L26.1776 24.3301L24.124 22.2782L22.047 24.3301L19.9984 22.2782L18.0176 24.2592V10.8599H34.2871Z" fill="#86B7C2"/>
<path d="M81 56.3796V62.0998H0.00683594V56.3796H8.4605C10.4347 52.8362 14.2313 50.4401 18.5846 50.4401C22.9211 50.4401 26.7177 52.8362 28.7088 56.3796H55.9091C57.8833 52.8362 61.6613 50.4401 66.0147 50.4401C70.3681 50.4401 74.1477 52.8362 76.1388 56.3796H81Z" fill="#1CB9DC"/>
<path d="M74.0985 62.0644C74.0985 66.5291 70.4792 70.1485 66.0144 70.1485C61.5497 70.1485 57.9336 66.5291 57.9336 62.0644C57.9336 57.5996 61.5512 53.9802 66.0144 53.9802C70.4809 53.9802 74.0985 57.5996 74.0985 62.0644Z" fill="#1CB9DC"/>
<path d="M69.2645 62.0643C69.2645 63.8581 67.8099 65.3109 66.0179 65.3109C64.2242 65.3109 62.7681 63.8581 62.7681 62.0643C62.7681 60.2706 64.2226 58.8178 66.0179 58.8178C67.8099 58.8162 69.2645 60.2708 69.2645 62.0643Z" fill="#C9E8ED"/>
<path d="M26.6619 62.0644C26.6619 66.5291 23.0408 70.1485 18.5778 70.1485C14.113 70.1485 10.4937 66.5291 10.4937 62.0644C10.4937 57.5996 14.113 53.9802 18.5778 53.9802C23.0408 53.9802 26.6619 57.5996 26.6619 62.0644Z" fill="#1CB9DC"/>
<path d="M21.8242 62.0643C21.8242 63.8581 20.3714 65.3109 18.5777 65.3109C16.784 65.3109 15.3296 63.8581 15.3296 62.0643C15.3296 60.2706 16.7841 58.8178 18.5777 58.8178C20.3713 58.8178 21.8242 60.2708 21.8242 62.0643Z" fill="#C9E8ED"/>
</svg>
