<svg width="78" height="78" viewBox="0 0 78 78" fill="none" xmlns="http://www.w3.org/2000/svg">
<g clip-path="url(#clip0)">
<path d="M48.837 78V71.1255C51.7892 71.1255 54.1824 68.734 54.1824 65.784V53.9582C54.1824 49.6412 51.6655 45.9117 48.018 44.1549C49.9022 42.6883 51.0613 40.3353 50.8618 37.7214C50.5845 34.0877 47.6304 31.1575 43.9923 30.9052C39.654 30.6044 36.0413 34.0319 36.0413 38.3028C36.0413 40.6271 37.1121 42.7008 38.7868 44.0604C35.0275 45.774 32.4131 49.5599 32.4131 53.9585V65.7843C32.4131 68.7343 34.8064 71.1258 37.7585 71.1258H38.0615V78H48.837Z" fill="#1CB9DC"/>
<path d="M70.6065 78V71.1255C73.5588 71.1255 75.9519 68.734 75.9519 65.784V53.9582C75.9519 49.6412 73.4351 45.9117 69.7875 44.1549C71.6717 42.6883 72.8309 40.3353 72.6313 37.7214C72.354 34.0877 69.3999 31.1575 65.7618 30.9052C61.4235 30.6044 57.8108 34.0319 57.8108 38.3028C57.8108 40.6271 58.8817 42.7008 60.5564 44.0604C56.797 45.774 54.1826 49.5599 54.1826 53.9585V65.7843C54.1826 68.7343 56.5759 71.1258 59.5281 71.1258H59.8312V78H70.6065Z" fill="#3A577B"/>
<path d="M69.7874 44.1549C71.6716 42.6883 72.8308 40.3353 72.6312 37.7214C72.354 34.0877 69.3999 31.1575 65.7618 30.9052C64.4437 30.8138 63.1926 31.0666 62.0894 31.5827C64.4493 32.6904 66.1466 35.0101 66.3536 37.7216C66.553 40.3355 65.394 42.6886 63.5098 44.155C67.1574 45.9119 69.6742 49.6414 69.6742 53.9584V65.7842V71.1257H70.6064C73.5587 71.1257 75.9519 68.7342 75.9519 65.7842V53.9584C75.9519 49.6412 73.4348 45.9117 69.7874 44.1549Z" fill="#223853"/>
<path d="M48.0638 44.1549C49.948 42.6883 51.1072 40.3353 50.9076 37.7214C50.6303 34.0877 47.6762 31.1575 44.0381 30.9052C42.72 30.8138 41.469 31.0666 40.3657 31.5827C42.7257 32.6904 44.4229 35.0101 44.63 37.7216C44.8294 40.3355 43.6704 42.6886 41.7862 44.155C45.4337 45.9119 47.9506 49.6414 47.9506 53.9584V65.7842V71.1257H48.8828C51.8351 71.1257 54.2282 68.7342 54.2282 65.7842V53.9584C54.2282 49.6412 51.7114 45.9117 48.0638 44.1549Z" fill="#11AACB"/>
<path d="M73.4641 20.5302H69.8438L65.7864 25.0537L61.491 20.5302H47.4178L43.3187 25.0537L39.065 20.5302H34.9011H35.4581C32.6454 20.5302 30.3652 18.2517 30.3652 15.4411V5.15228C30.3652 2.34169 32.6454 0.0632324 35.4581 0.0632324H72.9071C75.7198 0.0632324 77.9999 2.34169 77.9999 5.15228V15.4411C77.9999 18.2517 75.7198 20.5302 72.9071 20.5302H73.4641Z" fill="#C8E4EB"/>
<path d="M72.9072 0.0632324H66.6296C69.4423 0.0632324 71.7225 2.34169 71.7225 5.15228V15.4411C71.7225 18.2517 69.4423 20.5302 66.6296 20.5302H61.4912L62.5584 21.654L65.7867 25.0537L69.8441 20.5302H72.9074C75.7201 20.5302 78.0002 18.2517 78.0002 15.4411V5.15228C78.0001 2.34169 75.72 0.0632324 72.9072 0.0632324Z" fill="#A6D1DB"/>
<path d="M40.3663 4.84509L41.9834 8.11942L45.5998 8.64455L42.9829 11.1934L43.6007 14.7922L40.3663 13.0931L37.1319 14.7922L37.7495 11.1934L35.1328 8.64455L38.749 8.11942L40.3663 4.84509Z" fill="#1CB9DC"/>
<path d="M54.1825 4.84509L55.7998 8.11942L59.416 8.64455L56.7993 11.1934L57.4171 14.7922L54.1825 13.0931L50.9481 14.7922L51.5659 11.1934L48.9492 8.64455L52.5654 8.11942L54.1825 4.84509Z" fill="#1CB9DC"/>
<path d="M67.9991 4.84509L69.6164 8.11942L73.2325 8.64455L70.6159 11.1934L71.2335 14.7922L67.9991 13.0931L64.7647 14.7922L65.3824 11.1934L62.7656 8.64455L66.3818 8.11942L67.9991 4.84509Z" fill="#1CB9DC"/>
<path d="M16.4344 78V71.1255C19.3866 71.1255 21.7798 68.734 21.7798 65.784V53.9582C21.7798 49.6412 19.2629 45.9117 15.6154 44.1549C17.4996 42.6883 18.6587 40.3353 18.4592 37.7214C18.1819 34.0877 15.2278 31.1575 11.5897 30.9052C7.2514 30.6044 3.63872 34.0319 3.63872 38.3028C3.63872 40.6271 4.70954 42.7008 6.38426 44.0604C2.62487 45.7738 0.010498 49.5597 0.010498 53.9582V65.784C0.010498 68.734 2.40382 71.1255 5.35594 71.1255H5.65895V78H16.4344Z" fill="#C8E4EB"/>
<path d="M15.6153 44.1549C17.4995 42.6883 18.6587 40.3353 18.4591 37.7214C18.1819 34.0877 15.2278 31.1575 11.5896 30.9052C10.2716 30.8138 9.02051 31.0666 7.91724 31.5827C10.2772 32.6904 11.9745 35.0101 12.1815 37.7216C12.3809 40.3355 11.2219 42.6886 9.33769 44.155C12.9853 45.9119 15.5021 49.6414 15.5021 53.9584V65.7842V71.1257H16.4343C19.3866 71.1257 21.7798 68.7342 21.7798 65.7842V53.9584C21.7798 49.6412 19.2629 45.9117 15.6153 44.1549Z" fill="#A6D1DB"/>
<path d="M38.0618 56.1865C37.4117 56.1865 36.8848 56.7135 36.8848 57.3635V71.1254C36.8848 71.7754 37.4117 72.3024 38.0618 72.3024C38.7118 72.3024 39.2388 71.7754 39.2388 71.1254V57.3635C39.2388 56.7136 38.7118 56.1865 38.0618 56.1865Z" fill="#1994AF"/>
<path d="M48.8372 56.1865C48.1871 56.1865 47.6602 56.7135 47.6602 57.3635V71.1254C47.6602 71.7754 48.1871 72.3024 48.8372 72.3024C49.4872 72.3024 50.0142 71.7754 50.0142 71.1254V57.3635C50.0142 56.7136 49.4872 56.1865 48.8372 56.1865Z" fill="#1994AF"/>
<path d="M59.8313 56.1865C59.1813 56.1865 58.6543 56.7135 58.6543 57.3635V71.1254C58.6543 71.7754 59.1813 72.3024 59.8313 72.3024C60.4814 72.3024 61.0083 71.7754 61.0083 71.1254V57.3635C61.0085 56.7136 60.4815 56.1865 59.8313 56.1865Z" fill="#1A2B40"/>
<path d="M70.6067 56.1865C69.9566 56.1865 69.4297 56.7135 69.4297 57.3635V71.1254C69.4297 71.7754 69.9566 72.3024 70.6067 72.3024C71.2567 72.3024 71.7837 71.7754 71.7837 71.1254V57.3635C71.7838 56.7136 71.2567 56.1865 70.6067 56.1865Z" fill="#1A2B40"/>
<path d="M5.65919 56.1865C5.00913 56.1865 4.48218 56.7135 4.48218 57.3635V71.1254C4.48218 71.7754 5.00913 72.3024 5.65919 72.3024C6.30924 72.3024 6.83619 71.7754 6.83619 71.1254V57.3635C6.83619 56.7136 6.30924 56.1865 5.65919 56.1865Z" fill="#86B7C2"/>
<path d="M16.4346 56.1865C15.7845 56.1865 15.2576 56.7135 15.2576 57.3635V71.1254C15.2576 71.7754 15.7845 72.3024 16.4346 72.3024C17.0846 72.3024 17.6116 71.7754 17.6116 71.1254V57.3635C17.6116 56.7136 17.0846 56.1865 16.4346 56.1865Z" fill="#86B7C2"/>
<path d="M17.2138 20.6508H15.0261L10.9192 25.2149L6.59831 20.6508H4.57656H5.13855C2.30054 20.6508 0 18.3519 0 15.5161V5.1349C0 2.29887 2.3007 0 5.13855 0H16.6518C19.4898 0 21.7903 2.29887 21.7903 5.13475V15.5159C21.7903 18.3145 19.4525 20.6507 16.6518 20.6507C16.8392 20.6508 17.0264 20.6508 17.2138 20.6508Z" fill="#1CB9DC"/>
<path d="M16.6519 0H10.3742C13.2122 0 15.5128 2.29887 15.5128 5.13475V15.5159C15.5128 18.3145 13.1749 20.6507 10.3742 20.6507H6.59839L7.70075 21.815L10.9193 25.2147L15.0262 20.6507H16.6519C19.4525 20.6507 21.7904 18.3145 21.7904 15.5159V5.13475C21.7904 2.29887 19.4899 0 16.6519 0Z" fill="#11AACB"/>
<path d="M12.5403 10.592L15.2451 7.82191C15.6993 7.3568 15.6904 6.61154 15.2253 6.1574C14.7601 5.70326 14.015 5.71195 13.5608 6.1772L10.8951 8.9072L8.22941 6.1772C7.77513 5.71195 7.02986 5.70311 6.56491 6.1574C6.0998 6.61154 6.09097 7.3568 6.5451 7.82191L9.24997 10.592L6.5451 13.362C6.09097 13.8271 6.0998 14.5724 6.56491 15.0265C6.79388 15.25 7.09065 15.3614 7.38711 15.3614C7.69301 15.3614 7.99877 15.2429 8.22941 15.0067L10.8951 12.2767L13.5608 15.0067C13.7915 15.2429 14.0972 15.3614 14.4031 15.3614C14.6998 15.3614 14.9965 15.25 15.2253 15.0265C15.6904 14.5724 15.6993 13.8271 15.2451 13.362L12.5403 10.592Z" fill="white"/>
</g>
<defs>
<clipPath id="clip0">
<rect width="78" height="78" fill="white"/>
</clipPath>
</defs>
</svg>
