<svg width="82" height="84" viewBox="0 0 82 84" fill="none" xmlns="http://www.w3.org/2000/svg">
<g clip-path="url(#clip0)">
<path d="M7.53419 22.8062L19.4502 28.6923L25.3078 40.516L22.9456 42.8696C20.5204 45.2861 20.5204 49.2038 22.9456 51.6202L33.7895 62.4252C36.2147 64.8417 40.1465 64.8417 42.5717 62.4252L44.9339 60.0716L56.5915 66.0648L62.7075 77.7814C55.3286 85.1339 43.3649 85.1339 35.986 77.7814L7.53419 49.4318C0.155271 42.0793 0.155271 30.1586 7.53419 22.8062Z" fill="#1CB9DC"/>
<path d="M25.3078 40.5161L7.53418 22.8062L9.78959 20.5589C11.8757 18.4804 15.256 18.4804 17.3421 20.5589L27.5572 30.7374C29.6455 32.8182 29.6455 36.1937 27.5572 38.2746L25.3078 40.5161Z" fill="#C9E8ED"/>
<path d="M62.7077 77.7816L44.9341 60.0717L47.1895 57.8244C49.2756 55.7459 52.6559 55.7459 54.742 57.8244L64.9571 68.0029C67.0454 70.0837 67.0454 73.4592 64.9571 75.5401L62.7077 77.7816Z" fill="#C9E8ED"/>
<path d="M62.7077 77.7816L44.9341 60.0717L47.1895 57.8244C49.2756 55.7459 52.6559 55.7459 54.742 57.8244L64.9571 68.0029C67.0454 70.0837 67.0454 73.4592 64.9571 75.5401L62.7077 77.7816Z" fill="#C9E8ED"/>
<path d="M41.0787 14.6612C39.4054 14.6612 38.0488 13.3047 38.0488 11.6313V3.02987C38.0488 1.35654 39.4054 0 41.0787 0C42.752 0 44.1086 1.35654 44.1086 3.02987V11.6313C44.1086 13.3047 42.752 14.6612 41.0787 14.6612Z" fill="#E1E7EA"/>
<path d="M56.2317 14.5966C54.7826 13.7599 54.2861 11.9069 55.1227 10.4578L57.3611 6.5809C58.1977 5.13181 60.0507 4.63533 61.4998 5.47198C62.9489 6.30864 63.4454 8.16165 62.6088 9.61074L60.3704 13.4876C59.5338 14.9367 57.6808 15.4332 56.2317 14.5966Z" fill="#E1E7EA"/>
<path d="M67.3244 25.6893C66.4877 24.2402 66.9842 22.3872 68.4333 21.5505L72.3102 19.3122C73.7593 18.4755 75.6123 18.972 76.449 20.4211C77.2856 21.8702 76.7891 23.7232 75.3401 24.5599L71.4632 26.7982C70.0141 27.6349 68.1611 27.1384 67.3244 25.6893Z" fill="#E1E7EA"/>
<path d="M67.2598 40.8423C67.2598 39.1689 68.6163 37.8124 70.2896 37.8124H78.8911C80.5644 37.8124 81.921 39.1689 81.921 40.8423C81.921 42.5156 80.5644 43.8721 78.8911 43.8721H70.2896C68.6163 43.8721 67.2598 42.5156 67.2598 40.8423Z" fill="#E1E7EA"/>
<path d="M67.3244 55.9952C68.1611 54.5461 70.0141 54.0496 71.4632 54.8863L75.3401 57.1246C76.7891 57.9613 77.2856 59.8143 76.449 61.2634C75.6123 62.7125 73.7593 63.209 72.3102 62.3723L68.4333 60.134C66.9842 59.2975 66.4877 57.4445 67.3244 55.9952Z" fill="#E1E7EA"/>
<path d="M20.658 5.47174C22.1071 4.63508 23.9601 5.13157 24.7968 6.58066L27.0351 10.4576C27.8718 11.9067 27.3753 13.7597 25.9262 14.5963C24.4771 15.433 22.6241 14.9365 21.7875 13.4874L19.5491 9.6105C18.7123 8.1614 19.2088 6.30839 20.658 5.47174Z" fill="#E1E7EA"/>
<path d="M57.393 46.3009C57.3895 46.3009 57.386 46.3009 57.3823 46.3007C56.6987 46.2948 56.1497 45.736 56.1555 45.0528C56.1649 43.9493 56.1748 42.7058 56.184 41.4174H49.155C48.7172 41.4174 48.3119 41.1861 48.0894 40.8091C47.8668 40.4321 47.8599 39.9655 48.0713 39.5823C48.9991 37.9008 53.6737 29.4551 54.6048 28.3127C55.6114 27.0776 56.6755 27.2397 57.0868 27.367C57.9584 27.637 58.5787 28.4982 58.6672 29.5613C58.717 30.1578 58.7002 34.8504 58.6752 38.9426H59.5454C60.2289 38.9426 60.7828 39.4966 60.7828 40.18C60.7828 40.8634 60.2288 41.4174 59.5454 41.4174H58.6587C58.6458 43.2288 58.6339 44.6421 58.6302 45.0741C58.6243 45.754 58.0714 46.3009 57.393 46.3009ZM51.2559 38.9426H56.2003C56.2226 35.2674 56.2347 31.7009 56.2165 30.3214C55.318 31.7214 53.0652 35.6935 51.2559 38.9426Z" fill="#86B7C2"/>
<path d="M40.1777 46.3038C37.0197 46.3038 36.7939 46.2285 36.6284 46.1732C36.208 46.0331 35.8943 45.7168 35.7677 45.3057C35.5445 44.5798 35.8483 44.182 36.8547 42.8642C37.6978 41.7604 39.267 39.7056 41.8954 35.95C42.8214 34.568 43.3764 33.5976 43.5119 32.3553C43.4734 30.7361 42.1444 29.4309 40.5161 29.4309C39.0872 29.4309 37.8506 30.4463 37.5759 31.8453C37.4443 32.5159 36.7939 32.9522 36.1231 32.821C35.4525 32.6894 35.0158 32.0388 35.1474 31.3682C35.6497 28.8116 37.9074 26.9562 40.5161 26.9562C43.533 26.9562 45.9874 29.4106 45.9874 32.4275C45.9805 32.6235 45.908 33.1527 45.8737 33.347C45.5896 34.5722 44.9334 35.9255 43.9228 37.3692C41.6455 40.6231 40.1524 42.6171 39.2344 43.8247C40.8632 43.8306 43.2287 43.8159 45.4355 43.7882C46.1199 43.7725 46.6801 44.3266 46.6884 45.01C46.6971 45.6934 46.1501 46.2543 45.4668 46.2629C43.1291 46.2921 41.4247 46.3038 40.1777 46.3038Z" fill="#86B7C2"/>
</g>
<defs>
<clipPath id="clip0">
<rect width="81.9211" height="84" fill="white" transform="translate(0.0788574)"/>
</clipPath>
</defs>
</svg>
