<svg width="1411" height="354" viewBox="0 0 1411 354" fill="none" xmlns="http://www.w3.org/2000/svg">
<path d="M0 6H1310C1365.23 6 1410 50.7715 1410 106V238C1410 293.228 1365.23 338 1310 338H0" stroke="#E2E7EA"/>
<circle cx="15.5" cy="338.5" r="15.5" fill="#1CB9DC"/>
<path d="M22.5606 335.605L14.6475 343.518C14.0615 344.104 13.111 344.104 12.5245 343.518L8.43965 339.433C7.85345 338.847 7.85345 337.896 8.43965 337.31C9.02596 336.723 9.97643 336.723 10.5625 337.31L13.5863 340.333L20.4375 333.482C21.0238 332.896 21.9743 332.896 22.5604 333.482C23.1465 334.068 23.1465 335.019 22.5606 335.605Z" fill="white"/>
<circle cx="6" cy="6" r="6" fill="#C9E7ED"/>
</svg>