<?xml version="1.0" encoding="UTF-8" standalone="no"?>
<svg
   xmlns:dc="http://purl.org/dc/elements/1.1/"
   xmlns:cc="http://creativecommons.org/ns#"
   xmlns:rdf="http://www.w3.org/1999/02/22-rdf-syntax-ns#"
   xmlns:svg="http://www.w3.org/2000/svg"
   xmlns="http://www.w3.org/2000/svg"
   xmlns:sodipodi="http://sodipodi.sourceforge.net/DTD/sodipodi-0.dtd"
   xmlns:inkscape="http://www.inkscape.org/namespaces/inkscape"
   version="1.1"
   id="Layer_1"
   x="0px"
   y="0px"
   viewBox="0 0 512 512"
   style="enable-background:new 0 0 512 512;"
   xml:space="preserve"
   sodipodi:docname="google-plus.svg"
   inkscape:version="0.92.3 (2405546, 2018-03-11)"><metadata
   id="metadata53"><rdf:RDF><cc:Work
       rdf:about=""><dc:format>image/svg+xml</dc:format><dc:type
         rdf:resource="http://purl.org/dc/dcmitype/StillImage" /></cc:Work></rdf:RDF></metadata><defs
   id="defs51">
	
	
	
</defs><sodipodi:namedview
   pagecolor="#ffffff"
   bordercolor="#666666"
   borderopacity="1"
   objecttolerance="10"
   gridtolerance="10"
   guidetolerance="10"
   inkscape:pageopacity="0"
   inkscape:pageshadow="2"
   inkscape:window-width="1366"
   inkscape:window-height="705"
   id="namedview49"
   showgrid="false"
   inkscape:zoom="0.4609375"
   inkscape:cx="256"
   inkscape:cy="256"
   inkscape:window-x="0"
   inkscape:window-y="30"
   inkscape:window-maximized="1"
   inkscape:current-layer="Layer_1" />


<g
   id="g869"><path
     style="fill:#ffc61b"
     d="m 207.073,388.141 c -72.867,0 -132.148,-59.283 -132.148,-132.15 0,-72.858 59.281,-132.134 132.148,-132.134 29.881,0 57.342,9.104 79.413,26.326 9.339,7.284 12.721,20.106 8.22,31.182 -1.316,3.242 -3.331,6.235 -5.989,8.895 l -18.557,18.557 c -4.875,4.872 -11.179,7.752 -17.753,8.11 -6.299,0.34 -12.32,-1.48 -17.328,-5.2 -7.465,-5.543 -17.148,-8.473 -28.005,-8.473 -27.741,0 -51.178,24.151 -51.178,52.736 0,28.588 22.957,51.845 51.178,51.845 13.161,0 22.482,-3.672 29.004,-8.286 -14.183,-0.629 -25.528,-12.364 -25.528,-26.7 v -17.646 c 0,-14.738 11.99,-26.727 26.727,-26.727 h 56.843 c 21.638,0 39.243,17.612 39.243,39.26 0,49.614 -26.943,79.19 -43.003,92.405 -24.169,19.888 -48.298,28 -83.287,28 z m 0,-235.481 c -56.984,0 -103.347,46.354 -103.347,103.333 0,56.986 46.361,103.348 103.347,103.348 32.421,0 48.903,-8.203 64.985,-21.438 12.14,-9.988 32.502,-32.384 32.502,-70.165 0,-5.767 -4.685,-10.459 -10.442,-10.459 H 239.35 v 13.499 h 24.621 c 4.504,0 8.75,2.108 11.473,5.698 2.723,3.589 3.609,8.246 2.395,12.583 -4.605,16.457 -25.322,47.581 -70.766,47.581 -44.1,0 -79.979,-36.178 -79.979,-80.646 0,-44.198 36.626,-81.537 79.979,-81.537 16.402,0 31.452,4.509 43.66,13.058 l 16.095,-16.094 C 250.191,159.138 229.588,152.66 207.073,152.66 Z"
     id="path10"
     inkscape:connector-curvature="0" /><g
     id="g6">
	<path
   id="path2"
   d="M430.975,512h-37.449c-7.952,0-14.401-6.447-14.401-14.401c0-7.953,6.449-14.401,14.401-14.401   h37.449c27.604,0,50.064-22.459,50.064-50.064V83.186c0-27.604-22.459-50.064-50.064-50.064H214.718   c-7.952,0-14.401-6.447-14.401-14.401s6.449-14.401,14.401-14.401h216.257c43.485,0,78.865,35.378,78.865,78.865v349.949   C509.84,476.622,474.461,512,430.975,512z"
   style="fill:#FFC61B;" />
	<path
   id="path4"
   d="M289.409,507.68H81.025c-43.485,0-78.865-35.378-78.865-78.865V78.865   C2.16,35.378,37.539,0,81.025,0h32.408c7.952,0,14.401,6.447,14.401,14.401s-6.449,14.401-14.401,14.401H81.025   c-27.604,0-50.064,22.459-50.064,50.064v349.949c0,27.604,22.459,50.064,50.064,50.064h208.385c7.952,0,14.401,6.447,14.401,14.401   S297.363,507.68,289.409,507.68z"
   style="fill:#FFC61B;" />
</g><path
     style="fill:#ffc61b"
     d="m 392.072,301.002 c -7.952,0 -14.401,-6.447 -14.401,-14.401 v -61.202 c 0,-7.953 6.449,-14.401 14.401,-14.401 7.952,0 14.401,6.447 14.401,14.401 v 61.202 c 0,7.954 -6.447,14.401 -14.401,14.401 z"
     id="path12"
     inkscape:connector-curvature="0" /><path
     style="fill:#ffc61b"
     d="m 422.673,270.401 h -61.202 c -7.952,0 -14.401,-6.447 -14.401,-14.401 0,-7.953 6.449,-14.401 14.401,-14.401 h 61.202 c 7.952,0 14.401,6.447 14.401,14.401 0,7.953 -6.447,14.401 -14.401,14.401 z"
     id="path14"
     inkscape:connector-curvature="0" /></g>
</svg>