<?xml version="1.0" encoding="UTF-8" standalone="no"?>
<svg
   xmlns:dc="http://purl.org/dc/elements/1.1/"
   xmlns:cc="http://creativecommons.org/ns#"
   xmlns:rdf="http://www.w3.org/1999/02/22-rdf-syntax-ns#"
   xmlns:svg="http://www.w3.org/2000/svg"
   xmlns="http://www.w3.org/2000/svg"
   xmlns:sodipodi="http://sodipodi.sourceforge.net/DTD/sodipodi-0.dtd"
   xmlns:inkscape="http://www.inkscape.org/namespaces/inkscape"
   version="1.1"
   id="Layer_1"
   x="0px"
   y="0px"
   viewBox="0 0 512.001 512.001"
   style="enable-background:new 0 0 512.001 512.001;"
   xml:space="preserve"
   sodipodi:docname="instagram.svg"
   inkscape:version="0.92.3 (2405546, 2018-03-11)"><metadata
   id="metadata51"><rdf:RDF><cc:Work
       rdf:about=""><dc:format>image/svg+xml</dc:format><dc:type
         rdf:resource="http://purl.org/dc/dcmitype/StillImage" /></cc:Work></rdf:RDF></metadata><defs
   id="defs49">
	
	
</defs>

<g
   id="g865"><g
     id="g6">
	<path
   id="path2"
   d="M432.464,512.001h-37.767c-8.02,0-14.523-6.502-14.523-14.523s6.503-14.523,14.523-14.523h37.767   c27.839,0,50.49-22.65,50.49-50.49V79.537c0-27.839-22.65-50.49-50.49-50.49H214.367c-8.02,0-14.523-6.502-14.523-14.523   s6.503-14.523,14.523-14.523h218.098c43.855,0,79.536,35.679,79.536,79.536v352.928C512,476.322,476.321,512.001,432.464,512.001z"
   style="fill:#FFC61B;" />
	<path
   id="path4"
   d="M289.694,512.001H79.536C35.679,512.001,0,476.322,0,432.465V79.537   C0,35.68,35.679,0.001,79.536,0.001h32.684c8.02,0,14.523,6.502,14.523,14.523s-6.503,14.523-14.523,14.523H79.536   c-27.839,0-50.49,22.65-50.49,50.49v352.928c0,27.839,22.65,50.49,50.49,50.49h210.158c8.02,0,14.523,6.502,14.523,14.523   C304.218,505.499,297.714,512.001,289.694,512.001z"
   style="fill:#FFC61B;" />
</g><path
     style="fill:#ffc61b"
     d="M 359.599,424.47 H 152.403 c -35.77,0 -64.87,-29.1 -64.87,-64.87 V 152.402 c 0,-35.769 29.1,-64.87 64.87,-64.87 h 207.196 c 35.77,0 64.87,29.1 64.87,64.87 v 207.197 c 0,35.769 -29.101,64.871 -64.87,64.871 z M 152.403,116.579 c -19.754,0 -35.824,16.07 -35.824,35.824 V 359.6 c 0,19.753 16.07,35.824 35.824,35.824 h 207.196 c 19.754,0 35.824,-16.07 35.824,-35.824 V 152.402 c 0,-19.753 -16.07,-35.824 -35.824,-35.824 H 152.403 Z m 103.598,228.725 c -49.242,0 -89.303,-40.061 -89.303,-89.303 0,-49.242 40.061,-89.303 89.303,-89.303 49.242,0 89.303,40.061 89.303,89.303 0,49.242 -40.061,89.303 -89.303,89.303 z m 0,-149.56 c -33.226,0 -60.256,27.03 -60.256,60.257 0,33.227 27.03,60.257 60.256,60.257 33.226,0 60.257,-27.03 60.257,-60.257 0,-33.227 -27.033,-60.257 -60.257,-60.257 z"
     id="path10"
     inkscape:connector-curvature="0" /><circle
     style="fill:#ffc61b"
     cx="346.40601"
     cy="164.504"
     r="20.448999"
     id="circle12" /></g>
</svg>