<?xml version="1.0" encoding="UTF-8" standalone="no"?>
<!-- Created with Inkscape (http://www.inkscape.org/) -->

<svg
   xmlns:dc="http://purl.org/dc/elements/1.1/"
   xmlns:cc="http://creativecommons.org/ns#"
   xmlns:rdf="http://www.w3.org/1999/02/22-rdf-syntax-ns#"
   xmlns:svg="http://www.w3.org/2000/svg"
   xmlns="http://www.w3.org/2000/svg"
   xmlns:sodipodi="http://sodipodi.sourceforge.net/DTD/sodipodi-0.dtd"
   xmlns:inkscape="http://www.inkscape.org/namespaces/inkscape"
   width="205"
   height="150"
   viewBox="0 0 54.239582 39.687501"
   version="1.1"
   id="svg1290"
   inkscape:version="0.92.3 (2405546, 2018-03-11)"
   sodipodi:docname="splat.svg">
  <defs
     id="defs1284" />
  <sodipodi:namedview
     id="base"
     pagecolor="#ffffff"
     bordercolor="#666666"
     borderopacity="1.0"
     inkscape:pageopacity="0.0"
     inkscape:pageshadow="2"
     inkscape:zoom="1.979899"
     inkscape:cx="57.322112"
     inkscape:cy="89.970264"
     inkscape:document-units="mm"
     inkscape:current-layer="layer1"
     showgrid="false"
     units="px"
     inkscape:window-width="1366"
     inkscape:window-height="705"
     inkscape:window-x="0"
     inkscape:window-y="30"
     inkscape:window-maximized="1" />
  <metadata
     id="metadata1287">
    <rdf:RDF>
      <cc:Work
         rdf:about="">
        <dc:format>image/svg+xml</dc:format>
        <dc:type
           rdf:resource="http://purl.org/dc/dcmitype/StillImage" />
        <dc:title></dc:title>
      </cc:Work>
    </rdf:RDF>
  </metadata>
  <g
     inkscape:label="Layer 1"
     inkscape:groupmode="layer"
     id="layer1"
     transform="translate(0,-257.31248)">
    <path
       style="fill:#1a1a1a;stroke:none;stroke-width:0.04645206px;stroke-linecap:butt;stroke-linejoin:miter;stroke-opacity:1"
       d="m 37.278123,288.1545 c 2.16916,0.68182 3.70517,2.98183 5.93814,3.39778 2.97117,0.55344 6.47613,0.3721 8.95932,-1.38036 1.112,-0.78476 1.81077,-2.24235 1.97939,-3.61013 0.28665,-2.32545 -0.11916,-5.16506 -1.77103,-6.79555 -2.43252,-2.40105 -6.55498,-1.77923 -9.89691,-2.33597 -1.06738,-0.17782 -2.6191,0.59144 -3.22954,-0.31854 -0.79419,-1.18393 0.18063,-3.09754 1.14597,-4.14103 1.89103,-2.04416 5.46301,-1.29281 7.81336,-2.7607 2.13597,-1.334 4.99177,-2.79286 5.41726,-5.30901 0.34291,-2.0278 -1.13992,-4.2261 -2.70863,-5.52139 -2.03536,-1.6806 -4.98656,-1.94339 -7.60499,-2.01744 -3.86,-0.10911 -8.46281,-0.27125 -11.35542,2.336 -1.89198,1.70533 -0.23865,5.98795 -2.3961,7.32644 -4.02332,2.49608 -9.31829,-1.41404 -13.959865,-2.2298 -2.959861,-0.52019 -5.8953883,-2.21985 -8.8551303,-1.69888 -2.376964,0.41838 -5.09822,1.55657 -6.25068798,3.71631 -0.714193,1.33842 -0.688794,3.3471 0.208359,4.56576 2.44522898,3.32146 7.62726998,2.96434 11.56376628,4.03487 2.289928,0.62272 6.163931,-0.88756 6.979939,1.38033 1.318279,3.66385 -5.822166,5.48593 -7.188298,9.13152 -0.694845,1.85423 -1.110716,4.1356 -0.312535,5.9461 1.073614,2.43525 3.58672,4.42389 6.146515,4.99047 2.238667,0.49552 4.764597,-0.39865 6.667397,-1.69888 2.5787,-1.7621 2.69267,-6.34099 5.52142,-7.64497 2.19143,-1.0102 4.88998,-0.0853 7.1883,0.63707 z"
       id="path1282"
       inkscape:connector-curvature="0"
       sodipodi:nodetypes="ssssssssssssssssssssssssss" />
  </g>
</svg>
