<?xml version="1.0" encoding="UTF-8" standalone="no"?>

<svg
   xmlns:dc="http://purl.org/dc/elements/1.1/"
   xmlns:cc="http://creativecommons.org/ns#"
   xmlns:rdf="http://www.w3.org/1999/02/22-rdf-syntax-ns#"
   xmlns:svg="http://www.w3.org/2000/svg"
   xmlns="http://www.w3.org/2000/svg"
   xmlns:sodipodi="http://sodipodi.sourceforge.net/DTD/sodipodi-0.dtd"
   xmlns:inkscape="http://www.inkscape.org/namespaces/inkscape"
   version="1.1"
   id="Layer_1"
   x="0px"
   y="0px"
   viewBox="0 0 512 512"
   style="enable-background:new 0 0 512 512;"
   xml:space="preserve"
   sodipodi:docname="telegram (1).svg"
   inkscape:version="0.92.3 (2405546, 2018-03-11)"><metadata
   id="metadata51"><rdf:RDF><cc:Work
       rdf:about=""><dc:format>image/svg+xml</dc:format><dc:type
         rdf:resource="http://purl.org/dc/dcmitype/StillImage" /></cc:Work></rdf:RDF></metadata><defs
   id="defs49">
	
	
</defs>


<g
   id="g865"><g
     id="g6">
	<path
   id="path2"
   d="M432.464,512h-37.766c-8.021,0-14.523-6.502-14.523-14.523s6.502-14.523,14.523-14.523h37.766   c27.839,0,50.49-22.65,50.49-50.49V79.536c0-27.839-22.65-50.49-50.49-50.49H214.367c-8.021,0-14.523-6.502-14.523-14.523   S206.346,0,214.367,0h218.097C476.321,0,512,35.679,512,79.536v352.928C512,476.321,476.321,512,432.464,512z"
    />
	<path
   id="path4"
   d="M289.693,512H79.536C35.679,512,0,476.321,0,432.464V79.536C0,35.679,35.679,0,79.536,0h32.684   c8.021,0,14.523,6.502,14.523,14.523s-6.502,14.523-14.523,14.523H79.536c-27.839,0-50.49,22.65-50.49,50.49v352.928   c0,27.839,22.65,50.49,50.49,50.49h210.157c8.021,0,14.523,6.502,14.523,14.523S297.714,512,289.693,512z"
    />
</g><path
     
     d="m 351.348,406.895 h -0.001 c -6.483,0 -12.698,-2.046 -17.969,-5.915 -0.109,-0.08 -0.216,-0.161 -0.322,-0.244 l -78.389,-60.974 -32.42,30.94 c -5.185,5.188 -12.047,8.04 -19.356,8.04 -12.064,0 -22.601,-7.716 -26.219,-19.202 -0.064,-0.205 -0.125,-0.41 -0.18,-0.617 L 157.574,288.082 97.756,270.42 C 87.211,267.308 80.093,258.197 79.628,247.211 79.162,236.223 85.484,226.542 95.733,222.548 l 296.09,-115.385 c 3.502,-1.365 7.151,-2.056 10.849,-2.056 8.965,0 17.381,4.03 23.09,11.056 5.651,6.955 7.835,16 5.991,24.814 l -50.554,241.69 c -2.935,14.038 -15.489,24.228 -29.851,24.228 z m -0.696,-29.269 c 0.235,0.155 0.449,0.222 0.696,0.222 0.121,0 1.191,-0.03 1.422,-1.128 l 50.552,-241.69 c 0.057,-0.272 0.036,-0.381 -0.103,-0.552 -0.151,-0.186 -0.388,-0.327 -0.548,-0.327 -0.073,0 -0.18,0.026 -0.302,0.074 l -285.93,111.425 57.173,16.882 c 4.854,1.433 8.612,5.292 9.919,10.182 l 20.171,75.532 39.968,-38.142 c 5.205,-4.968 13.264,-5.375 18.943,-0.957 z"
     id="path10"
     inkscape:connector-curvature="0" /><path
     
     d="m 219.677,360.209 c 0.456,1.476 17.095,-19.324 17.272,-20.862 l -7.463,-36.536 c -0.983,-4.813 0.761,-9.776 4.538,-12.915 L 370.822,176.222 c 3.292,-2.913 -0.532,-8.05 -4.265,-5.737 L 205.69,268.601 c -3.814,2.327 -5.782,6.775 -4.939,11.161 z"
     id="path12"
     inkscape:connector-curvature="0" /></g>
</svg>